<svg height="16" viewBox="0 0 16 16" width="16" xmlns="http://www.w3.org/2000/svg"><g fill="#444"><path d="m12 7v-2l-1.2-.4c-.1-.3-.2-.7-.4-1l.6-1.2-1.5-1.3-1.1.5c-.3-.2-.6-.3-1-.4l-.4-1.2h-2l-.4 1.2c-.3.1-.7.2-1 .4l-1.1-.5-1.4 1.4.6 1.2c-.2.3-.3.6-.4 1l-1.3.3v2l1.2.4c.1.3.2.7.4 1l-.5 1.1 1.4 1.4 1.2-.6c.3.2.6.3 1 .4l.3 1.3h2l.4-1.2c.3-.1.7-.2 1-.4l1.2.6 1.4-1.4-.6-1.2c.2-.3.3-.6.4-1zm-9-1c0-1.7 1.3-3 3-3s3 1.3 3 3-1.3 3-3 3-3-1.3-3-3z"/><path d="m7.5 6c0 .828-.672 1.5-1.5 1.5s-1.5-.672-1.5-1.5.672-1.5 1.5-1.5 1.5.672 1.5 1.5z"/><path d="m16 3v-1h-.6c0-.2-.1-.4-.2-.5l.4-.4-.7-.7-.4.4c-.2-.1-.3-.2-.5-.2v-.6h-1v.6c-.2 0-.4.1-.5.2l-.4-.4-.7.7.4.4c-.1.2-.2.3-.2.5h-.6v1h.6c0 .2.1.4.2.5l-.4.4.7.7.4-.4c.2.1.3.2.5.2v.6h1v-.6c.2 0 .4-.1.5-.2l.4.4.7-.7-.4-.4c.1-.2.2-.3.2-.5zm-2.5.5c-.6 0-1-.4-1-1s.4-1 1-1 1 .4 1 1-.4 1-1 1z"/><path d="m15.4 11.8c-.1-.3-.2-.6-.4-.9l.3-.6-.7-.7-.5.4c-.3-.2-.6-.3-.9-.4l-.2-.6h-1l-.2.6c-.3.1-.6.2-.9.4l-.6-.3-.7.7.3.6c-.2.3-.3.6-.4.9l-.5.1v1l.6.2c.1.3.2.6.4.9l-.3.6.7.7.6-.3c.3.2.6.3.9.4l.1.5h1l.2-.6c.3-.1.6-.2.9-.4l.6.3.7-.7-.4-.5c.2-.3.3-.6.4-.9l.6-.2v-1zm-2.9 2.2c-.8 0-1.5-.7-1.5-1.5s.7-1.5 1.5-1.5 1.5.7 1.5 1.5-.7 1.5-1.5 1.5z"/></g></svg>