<?xml version="1.0" encoding="UTF-8"?>
<svg version="1.1" xmlns="http://www.w3.org/2000/svg" width="768" height="506">
<path d="M0 0 C253.44 0 506.88 0 768 0 C768 166.98 768 333.96 768 506 C514.56 506 261.12 506 0 506 C0 339.02 0 172.04 0 0 Z " fill="#FEFEFE" transform="translate(0,0)"/>
<path d="M0 0 C18.55083293 12.32001881 28.95471072 27.33605905 34.55859375 48.69921875 C34.73729004 49.34407227 34.91598633 49.98892578 35.10009766 50.65332031 C38.81096142 67.21191369 33.78468002 83.99140636 26.55859375 98.69921875 C25.89859375 99.68921875 25.23859375 100.67921875 24.55859375 101.69921875 C24.32457065 108.5155316 26.32603723 115.12657862 28.30859375 121.57421875 C30.46173869 128.8322746 32.48770897 136.10035016 34.30859375 143.44921875 C34.50678711 144.24569824 34.70498047 145.04217773 34.90917969 145.86279297 C36.20454154 151.12506212 37.39861784 156.40551052 38.55859375 161.69921875 C32.61859375 161.69921875 26.67859375 161.69921875 20.55859375 161.69921875 C18.79214936 156.98870037 17.17430865 152.65972504 15.875 147.87109375 C15.58689453 146.82308594 15.29878906 145.77507812 15.00195312 144.6953125 C14.56592773 143.08849609 14.56592773 143.08849609 14.12109375 141.44921875 C12.10487268 134.02771289 9.94163564 126.70596455 7.47094727 119.42236328 C6.28794149 115.8913902 5.23830346 112.35129598 4.24609375 108.76171875 C3.89933594 107.53582031 3.55257812 106.30992187 3.1953125 105.046875 C2.56917978 101.75487657 2.53087756 99.85537448 3.55859375 96.69921875 C4.89192708 95.03255208 6.22526042 93.36588542 7.55859375 91.69921875 C15.15444857 79.0316701 17.68418033 64.63938472 14.8671875 50.140625 C10.8089651 35.72459649 2.38123621 24.35965367 -10.7578125 16.98046875 C-23.3318036 10.97716587 -37.98766128 8.08089464 -51.56640625 12.26171875 C-67.69977274 18.3790433 -77.03006311 27.42419698 -84.44140625 42.69921875 C-85.7501827 46.35708114 -86.39904602 49.864846 -86.48876953 53.75024414 C-86.81658117 62.32111356 -90.46639023 69.67837251 -93.87890625 77.38671875 C-94.78302278 79.45696898 -95.68305629 81.52888227 -96.57887268 83.60273743 C-97.39061237 85.47763959 -98.21340585 87.34774479 -99.03686523 89.2175293 C-100.44066643 92.69738483 -101.47889196 96.07857964 -102.44140625 99.69921875 C-98.81140625 99.69921875 -95.18140625 99.69921875 -91.44140625 99.69921875 C-91.44140625 113.88921875 -91.44140625 128.07921875 -91.44140625 142.69921875 C-66.36140625 142.69921875 -41.28140625 142.69921875 -15.44140625 142.69921875 C-10.44140625 158.69921875 -10.44140625 158.69921875 -10.44140625 161.69921875 C-43.44140625 161.69921875 -76.44140625 161.69921875 -110.44140625 161.69921875 C-110.44140625 146.84921875 -110.44140625 131.99921875 -110.44140625 116.69921875 C-117.37140625 116.69921875 -124.30140625 116.69921875 -131.44140625 116.69921875 C-129.99215542 112.35146625 -128.47877645 108.32505594 -126.6484375 104.1484375 C-126.09821401 102.88859569 -125.54800288 101.62874849 -124.99780273 100.36889648 C-124.71266815 99.71847382 -124.42753357 99.06805115 -124.13375854 98.3979187 C-123.24329688 96.36246744 -122.35906009 94.32442179 -121.47680664 92.28540039 C-116.63162219 81.09026445 -116.63162219 81.09026445 -114.16796875 75.68359375 C-110.44458952 67.35766365 -108.49708815 59.44218539 -106.99121094 50.44775391 C-103.62371754 31.39224066 -92.94450305 14.84327462 -77.30078125 3.40234375 C-54.49650167 -11.24968129 -23.91194634 -14.10556121 0 0 Z " fill="#085C9A" transform="translate(219.44140625,152.30078125)"/>
<path d="M0 0 C12.87 0 25.74 0 39 0 C40.32 5.28 41.64 10.56 43 16 C44.14078565 20.39725656 45.28604711 24.79305827 46.4375 29.1875 C49.45482885 40.75487943 52.29195086 52.35663663 55 64 C57.8197586 54.37878691 59.86714719 44.61440357 61.9375 34.8125 C64.40383689 23.14277609 67.04309194 11.55641694 70 0 C78.25 0 86.5 0 95 0 C93.19934408 10.57677585 91.19622237 21.04300591 88.81082153 31.50149536 C87.93222545 35.35566379 87.06708883 39.21284144 86.203125 43.0703125 C85.93412132 44.27087029 85.93412132 44.27087029 85.65968323 45.49568176 C83.17013623 56.65697414 80.85087085 67.85485243 78.52661133 79.05151367 C78.36424988 79.83064117 78.20188843 80.60976868 78.03460693 81.4125061 C77.73101953 82.86991164 77.42896365 84.32763737 77.12872314 85.78573608 C76.54384907 88.59222994 75.90774361 91.27676916 75 94 C62.46 94 49.92 94 37 94 C34.958125 85.3375 34.958125 85.3375 32.875 76.5 C30.15790821 65.00733636 27.42850333 53.51911239 24.5625 42.0625 C24.32837402 41.12535156 24.09424805 40.18820313 23.85302734 39.22265625 C22.65009931 34.450006 21.35352637 29.73734231 20 25 C15.38 47.77 10.76 70.54 6 94 C-2.25 94 -10.5 94 -19 94 C-17.87470564 86.1229395 -17.87470564 86.1229395 -17.23144531 82.8984375 C-17.01523781 81.8080719 -17.01523781 81.8080719 -16.79466248 80.69567871 C-16.64070511 79.92985474 -16.48674774 79.16403076 -16.328125 78.375 C-16.16550674 77.55922485 -16.00288849 76.74344971 -15.83534241 75.9029541 C-15.30917093 73.26817459 -14.7798257 70.63404694 -14.25 68 C-14.0694809 67.09950928 -13.88896179 66.19901855 -13.70297241 65.27124023 C-11.29411067 53.25995159 -8.81141822 41.26983854 -6.1640625 29.30859375 C-4.01020883 19.5604529 -2.02451975 9.77553824 0 0 Z " fill="#065B99" transform="translate(386,183)"/>
<path d="M0 0 C0.82886719 0.00829834 1.65773437 0.01659668 2.51171875 0.02514648 C14.99038339 0.36651182 25.71869253 5.04842001 34.94140625 13.50390625 C44.60831162 23.75779639 49.33425497 35.32319017 48.99609375 49.38671875 C47.89027323 60.31894439 44.41997817 69.75244696 37.6875 78.4375 C37.10097656 78.90671875 36.51445312 79.3759375 35.91015625 79.859375 C34.37905513 81.45750687 34.37905513 81.45750687 34.98144531 84.08300781 C35.73978607 87.68591305 36.70464721 91.16045074 37.76171875 94.6875 C37.9663121 95.37492783 38.17090546 96.06235565 38.38169861 96.77061462 C38.81818281 98.23689025 39.25611131 99.70273659 39.69537354 101.16818237 C40.83866294 104.98570115 41.96844149 108.80720448 43.09765625 112.62890625 C43.32108704 113.38474503 43.54451782 114.1405838 43.77471924 114.91932678 C45.68223178 121.38765847 47.52932708 127.87120268 49.3125 134.375 C49.68314575 135.71208008 49.68314575 135.71208008 50.0612793 137.07617188 C50.28082275 137.88505859 50.50036621 138.69394531 50.7265625 139.52734375 C50.91428223 140.21691162 51.10200195 140.90647949 51.29541016 141.61694336 C51.6875 143.4375 51.6875 143.4375 51.6875 146.4375 C45.7475 146.4375 39.8075 146.4375 33.6875 146.4375 C33.048125 144.25125 32.40875 142.065 31.75 139.8125 C30.0475018 134.00095145 28.3165262 128.19856064 26.5625 122.40234375 C22.98871376 110.58717133 19.42345811 98.77072958 16.125 86.875 C15.87371338 85.98401611 15.62242676 85.09303223 15.36352539 84.17504883 C13.07343445 75.78353067 13.07343445 75.78353067 13.6875 72.4375 C15.26171875 70.91796875 15.26171875 70.91796875 17.375 69.625 C23.4075864 65.47159096 27.10829058 59.61572463 28.6875 52.4375 C29.46405909 44.35296515 28.58783545 37.4088176 23.73046875 30.7578125 C18.49059528 24.59850638 14.14395308 20.98263188 5.85546875 19.96875 C-3.52260343 19.89512431 -10.80427956 20.61181992 -18.109375 27.01171875 C-23.1576927 32.37243235 -25.96870718 38.85728363 -27.1875 46.0625 C-28.41076944 53.22089154 -31.49305914 59.78787533 -34.3125 66.4375 C-32.9925 66.4375 -31.6725 66.4375 -30.3125 66.4375 C-30.3125 78.9775 -30.3125 91.5175 -30.3125 104.4375 C-15.1325 104.4375 0.0475 104.4375 15.6875 104.4375 C19.6875 118.4375 19.6875 118.4375 19.6875 122.4375 C-2.7525 122.4375 -25.1925 122.4375 -48.3125 122.4375 C-48.3125 108.5775 -48.3125 94.7175 -48.3125 80.4375 C-51.6125 80.4375 -54.9125 80.4375 -58.3125 80.4375 C-57.66485575 76.6466857 -56.57821735 73.28528414 -55.16796875 69.7109375 C-49.07996525 54.13192052 -49.07996525 54.13192052 -45.0625 37.9375 C-42.74201575 25.20503377 -37.16150135 16.20814153 -26.671875 8.49609375 C-18.11015133 2.76834845 -10.32862661 -0.13484124 0 0 Z " fill="#075B9A" transform="translate(182.3125,167.5625)"/>
<path d="M0 0 C7.18990259 -0.11687925 14.3795938 -0.20520588 21.570261 -0.25906086 C24.91092232 -0.28493603 28.25043212 -0.32270312 31.59082031 -0.37719727 C64.52532813 -0.90065148 64.52532813 -0.90065148 73.72900391 7.48706055 C79.18117247 13.52008259 79.43026007 18.96261747 79.22265625 26.8515625 C78.54358076 36.45392824 75.11666534 44.79156152 68.0390625 51.40234375 C56.62483381 60.34567619 43.29719454 61.45357233 29.3125 61.1875 C27.91733232 61.17241097 26.52214866 61.15873009 25.12695312 61.14648438 C21.75088416 61.11143868 18.37565724 61.06230508 15 61 C14.86408447 62.02359619 14.72816895 63.04719238 14.58813477 64.10180664 C14.06310902 67.58170951 13.39068117 70.94623583 12.58984375 74.37109375 C12.3487085 75.40935303 12.10757324 76.4476123 11.85913086 77.51733398 C11.55499268 78.81098877 11.25085449 80.10464355 10.9375 81.4375 C9.4834375 87.6559375 9.4834375 87.6559375 8 94 C-0.58 94 -9.16 94 -18 94 C-18 86.12601679 -18 86.12601679 -17.20898438 82.52563477 C-17.03432648 81.71292114 -16.85966858 80.90020752 -16.67971802 80.06286621 C-16.48634857 79.19778442 -16.29297913 78.33270264 -16.09375 77.44140625 C-15.89321014 76.51533569 -15.69267029 75.58926514 -15.48605347 74.63513184 C-15.05433071 72.6439655 -14.61948875 70.65347338 -14.18182373 68.66360474 C-13.02542083 63.4039953 -11.89234109 58.13936357 -10.7578125 52.875 C-10.5267984 51.80548599 -10.2957843 50.73597198 -10.05776978 49.63404846 C-7.72488696 38.79777561 -5.53168273 27.93502343 -3.375 17.0625 C-3.11456909 15.75141769 -3.11456909 15.75141769 -2.84887695 14.41384888 C-1.89514351 9.6100375 -0.94545232 4.80544784 0 0 Z " fill="#065B99" transform="translate(496,183)"/>
<path d="M0 0 C4.32821745 2.45128903 7.59164083 5.39114912 11 9 C11.99 6.69 12.98 4.38 14 2 C21.92 2 29.84 2 38 2 C36.87478673 11.00170613 36.87478673 11.00170613 36.09545898 14.74316406 C35.92087662 15.5885675 35.74629425 16.43397095 35.56642151 17.30499268 C35.28410927 18.64675568 35.28410927 18.64675568 34.99609375 20.015625 C34.79696884 20.97345886 34.59784393 21.93129272 34.39268494 22.91815186 C33.74450144 26.02952035 33.09126483 29.13979986 32.4375 32.25 C31.98843717 34.39713399 31.53938124 36.54426942 31.09033203 38.69140625 C27.21671048 57.16288088 23.16055975 75.59126635 19 94 C10.75 94 2.5 94 -6 94 C-3.0274771 75.31557036 -3.0274771 75.31557036 -0.55078125 66.28515625 C0.11715781 63.90568562 0.11715781 63.90568562 0 61 C-0.51949219 61.48210937 -1.03898438 61.96421875 -1.57421875 62.4609375 C-2.27160156 63.09257812 -2.96898437 63.72421875 -3.6875 64.375 C-4.37199219 65.00148438 -5.05648437 65.62796875 -5.76171875 66.2734375 C-10.88927976 70.22872889 -15.6924522 70.364804 -21.9375 70.375 C-22.72318359 70.39949219 -23.50886719 70.42398438 -24.31835938 70.44921875 C-30.86719415 70.48209993 -34.45345768 68.47378397 -39.1875 63.875 C-45.42654836 53.97857846 -45.30391651 41.95949182 -42.875 30.8125 C-39.55317258 19.15505891 -33.17645979 8.66155447 -22.5625 2.5 C-15.30815767 -0.848158 -7.85322746 -1.28933585 0 0 Z " fill="#075C9A" transform="translate(619,209)"/>
<path d="M0 0 C1.59448975 0.00737183 1.59448975 0.00737183 3.22119141 0.01489258 C10.56340605 0.12477223 17.28773419 0.61591431 24.1875 3.3125 C25.0846875 3.64121094 25.981875 3.96992188 26.90625 4.30859375 C32.47860204 6.67684337 36.08463686 9.53663681 39.19921875 14.765625 C41.29392516 20.16384072 40.99871834 25.87884499 39.1875 31.3125 C29.6175 31.3125 20.0475 31.3125 10.1875 31.3125 C9.6925 27.3525 9.6925 27.3525 9.1875 23.3125 C5.31867456 19.34186337 1.81601679 18.1588008 -3.625 18 C-9.51893733 18.09396132 -12.38142923 19.94554538 -16.58984375 24.04296875 C-20.97664314 28.68945183 -23.68466709 33.31319331 -25.8125 39.3125 C-26.1115625 40.08722656 -26.410625 40.86195313 -26.71875 41.66015625 C-28.75763987 47.76738655 -29.12128688 53.67783855 -29.1875 60.0625 C-29.20135742 60.86671387 -29.21521484 61.67092773 -29.22949219 62.49951172 C-29.1815386 68.5984507 -28.37670238 73.63871632 -23.984375 78.21875 C-19.5208266 80.46658013 -14.65337435 79.97036241 -9.8125 79.3125 C-4.11054328 77.16047117 -0.7215022 73.66506404 2.1875 68.3125 C2.6825 66.8275 2.6825 66.8275 3.1875 65.3125 C12.4275 65.3125 21.6675 65.3125 31.1875 65.3125 C31.1875 73.28529378 28.04851861 78.85427139 22.7578125 84.84375 C11.13583748 95.71405499 -1.4083023 99.68677952 -17.03588867 99.68310547 C-19.1100546 99.68746856 -21.18206996 99.72383008 -23.25585938 99.76171875 C-33.56104263 99.84928312 -42.50991722 98.36991183 -50.28125 91.1484375 C-53.22822935 87.6150694 -55.08751719 83.55066001 -56.8125 79.3125 C-57.18117188 78.4153125 -57.54984375 77.518125 -57.9296875 76.59375 C-62.3526695 60.15434787 -57.9893572 41.60401997 -50.05859375 27.0234375 C-47.01480585 21.77920845 -43.19088745 17.48353213 -38.8125 13.3125 C-38.23886719 12.73113281 -37.66523438 12.14976562 -37.07421875 11.55078125 C-26.89887844 1.90970702 -13.43229768 -0.07308221 0 0 Z " fill="#085C9A" transform="translate(329.8125,179.6875)"/>
<path d="M0 0 C3.95478251 2.91900614 7.41112181 6.50974362 9.625 10.9375 C10.15236173 17.14414192 10.38747482 22.71858332 6.625 27.9375 C1.62141181 32.952917 -1.96582262 35.07740645 -9.1875 35.25 C-14.44290476 35.19928439 -17.40114201 34.61331864 -21.375 30.9375 C-26.1546176 25.75958093 -27.87302097 21.19116407 -27.6875 14.2109375 C-26.96744294 8.97252241 -24.18067404 5.43440175 -20.25 2.0625 C-14.26653679 -2.36005977 -7.02044619 -2.21014047 0 0 Z " fill="#075B9A" transform="translate(192.375,198.0625)"/>
<path d="M0 0 C3.21954645 2.53453657 4.70432435 4.11297305 6 8 C6.79593841 17.86963627 4.34030151 28.22801751 -2 36 C-4.3671055 38.74584238 -6.23290307 39.81473984 -9.9375 40.203125 C-15.51308901 40.32984293 -15.51308901 40.32984293 -17.9375 38.6875 C-21.66972947 32.75984143 -20.71613534 24.26542146 -19.28125 17.72265625 C-16.30217704 8.19683021 -11.82841892 -2.30573468 0 0 Z " fill="#F9FBFC" transform="translate(621,224)"/>
<path d="M0 0 C2.87557703 -0.08138426 5.74882262 -0.14067851 8.625 -0.1875 C9.43324219 -0.21263672 10.24148438 -0.23777344 11.07421875 -0.26367188 C16.14230591 -0.32547782 19.63703837 0.12044532 24 3 C26.4931967 6.73979505 26.19949384 8.41689751 25.60546875 12.71484375 C24.40491078 17.24598188 21.56221413 19.72675033 17.97265625 22.65234375 C13.56880363 24.6488341 9.45873074 24.31900389 4.6875 24.1875 C3.29047852 24.16719727 3.29047852 24.16719727 1.86523438 24.14648438 C-0.42377646 24.11126882 -2.71158458 24.06202099 -5 24 C-4.54479287 21.49939549 -4.08591072 18.99955427 -3.625 16.5 C-3.43550781 15.45585937 -3.43550781 15.45585937 -3.2421875 14.390625 C-2.34356616 9.53806974 -1.23744849 4.77762722 0 0 Z " fill="#F6F9FB" transform="translate(520,202)"/>
</svg>
