<svg viewBox="0 0 1024 1064.603" xmlns="http://www.w3.org/2000/svg"><path d="M729.266 941.597H405.148c-67.62 0-122.435-54.816-122.435-122.435s54.816-122.435 122.435-122.435h3.384l-240.417-243.49c-22.64-22.24-36.672-53.18-36.672-87.396 0-28.19 9.524-54.155 25.53-74.854l-.21.282.756-.98c22.03-25.987 54.697-42.37 91.192-42.37 32.655 0 62.246 13.117 83.79 34.37L492.77 442.555 651.265 323.68c19.564-14.686 44.256-23.518 71.01-23.518 32.777 0 62.457 13.255 83.974 34.697l-.004-.004C891.53 420.51 957.602 525.37 997.4 642.373l1.67 5.65v.444l2.67 8.46-63.665 20.123-2.582-8.237c-37.943-112.333-98.4-208.378-176.473-286.887l.034.034c-9.384-9.37-22.34-15.165-36.65-15.165-11.672 0-22.444 3.856-31.112 10.364l.134-.097-204.8 153.6-201.238-201.416c-8.84-8.967-21.12-14.523-34.696-14.523-.324 0-.647.003-.97.01l.048-.002h-1.29c-.195-.003-.425-.004-.655-.004-15.332 0-29.055 6.89-38.242 17.74l-.06.073c-6.953 9.188-11.137 20.806-11.137 33.402 0 15.61 6.428 29.72 16.78 39.827l.457.455L568.235 763.6H405.152c-30.736 0-55.652 24.917-55.652 55.653s24.916 55.652 55.652 55.652H729.27zm-483.06-338.81C110.235 602.777.015 492.552.015 356.582c0-135.975 110.23-246.205 246.205-246.205 134.99 0 244.606 108.637 246.19 243.25v.15c.045 1.747.07 3.804.07 5.868 0 34.125-7.05 66.603-19.774 96.056l.604-1.57-61.53-25.913c8.79-20.236 13.905-43.806 13.905-68.57 0-1.58-.02-3.153-.062-4.722l.005.232v-.445c-1.06-98.283-80.98-177.548-179.413-177.548-99.092 0-179.423 80.33-179.423 179.423s80.33 179.423 179.423 179.423c.466 0 .932-.002 1.397-.005h.869c20.53 0 40.226-3.555 58.51-10.084l-1.214.38 21.994 63.043c-23.564 8.465-50.75 13.358-79.082 13.358h-.833.043z"/></svg>