<svg viewBox="0 0 1024 1066.697" xmlns="http://www.w3.org/2000/svg"><path d="M887.318 1023.072h-680.38c-64.977-.567-117.43-53.372-117.43-118.428 0-65.408 53.023-118.432 118.43-118.432.353 0 .705.002 1.056.005h678.324V853h-678.51c-.153-.002-.333-.003-.513-.003-28.524 0-51.648 23.123-51.648 51.648 0 28.344 22.833 51.356 51.108 51.645h679.562zm-8.904-33.39H811.63V819.607h66.784zM207.382 21.33H920.71V853H207.47c-28.512.024-51.62 23.132-51.644 51.642v.003H89.043V139.762c.5-65.142 53.123-117.828 118.193-118.427h.057zm646.545 66.784H207.56c-28.482.3-51.485 23.334-51.734 51.8v658.322c15.033-7.47 32.74-11.843 51.468-11.843h646.634zM301.412 661.378V21.333h236.856v639.555l-119.185-58.546zm117.36-133.566l52.713 25.956V88.115h-103.29V553.1z"/></svg>