<svg xmlns="http://www.w3.org/2000/svg" xmlns:xlink="http://www.w3.org/1999/xlink" width="270" zoomAndPan="magnify" viewBox="0 0 202.5 60" height="80" preserveAspectRatio="xMidYMid meet" version="1.0"><defs><clipPath id="da4b152cf9"><path d="M 0 0.0742188 L 202 0.0742188 L 202 59.925781 L 0 59.925781 Z M 0 0.0742188 " clip-rule="nonzero"/></clipPath></defs><g clip-path="url(#da4b152cf9)"><path fill="#fefefe" d="M -16.089844 -39.203125 C 59.953125 -39.203125 135.996094 -39.203125 214.34375 -39.203125 C 214.34375 10.914062 214.34375 61.03125 214.34375 112.667969 C 138.300781 112.667969 62.257812 112.667969 -16.089844 112.667969 C -16.089844 62.550781 -16.089844 12.433594 -16.089844 -39.203125 Z M -16.089844 -39.203125 " fill-opacity="1" fill-rule="nonzero"/></g><path fill="#085c9a" d="M 49.753906 6.507812 C 55.320312 10.207031 58.441406 14.714844 60.121094 21.125 C 60.175781 21.320312 60.230469 21.511719 60.285156 21.710938 C 61.398438 26.683594 59.890625 31.71875 57.722656 36.132812 C 57.523438 36.429688 57.324219 36.726562 57.121094 37.03125 C 57.050781 39.078125 57.652344 41.0625 58.246094 43 C 58.894531 45.175781 59.5 47.359375 60.046875 49.5625 C 60.105469 49.804688 60.164062 50.042969 60.226562 50.289062 C 60.617188 51.867188 60.972656 53.453125 61.320312 55.042969 C 59.539062 55.042969 57.757812 55.042969 55.921875 55.042969 C 55.390625 53.628906 54.90625 52.328125 54.515625 50.890625 C 54.429688 50.578125 54.34375 50.261719 54.253906 49.9375 C 54.125 49.457031 54.125 49.457031 53.988281 48.964844 C 53.386719 46.734375 52.734375 44.539062 51.996094 42.351562 C 51.640625 41.292969 51.324219 40.230469 51.027344 39.152344 C 50.921875 38.785156 50.820312 38.417969 50.710938 38.039062 C 50.523438 37.050781 50.511719 36.480469 50.820312 35.53125 C 51.21875 35.03125 51.621094 34.53125 52.019531 34.03125 C 54.300781 30.230469 55.058594 25.910156 54.214844 21.558594 C 52.996094 17.230469 50.46875 13.820312 46.523438 11.605469 C 42.753906 9.804688 38.355469 8.933594 34.28125 10.1875 C 29.441406 12.023438 26.640625 14.738281 24.417969 19.324219 C 24.023438 20.421875 23.828125 21.476562 23.804688 22.640625 C 23.703125 25.214844 22.609375 27.421875 21.585938 29.734375 C 21.3125 30.355469 21.042969 30.980469 20.773438 31.601562 C 20.53125 32.164062 20.285156 32.726562 20.039062 33.285156 C 19.617188 34.332031 19.304688 35.347656 19.015625 36.433594 C 20.105469 36.433594 21.195312 36.433594 22.316406 36.433594 C 22.316406 40.691406 22.316406 44.949219 22.316406 49.339844 C 29.84375 49.339844 37.367188 49.339844 45.121094 49.339844 C 46.621094 54.140625 46.621094 54.140625 46.621094 55.042969 C 36.71875 55.042969 26.816406 55.042969 16.617188 55.042969 C 16.617188 50.585938 16.617188 46.128906 16.617188 41.535156 C 14.535156 41.535156 12.457031 41.535156 10.316406 41.535156 C 10.75 40.230469 11.203125 39.023438 11.753906 37.769531 C 11.917969 37.390625 12.082031 37.011719 12.25 36.632812 C 12.335938 36.4375 12.417969 36.242188 12.507812 36.042969 C 12.773438 35.429688 13.039062 34.820312 13.304688 34.207031 C 14.757812 30.847656 14.757812 30.847656 15.496094 29.226562 C 16.613281 26.726562 17.199219 24.351562 17.652344 21.648438 C 18.660156 15.929688 21.867188 10.964844 26.558594 7.53125 C 33.402344 3.132812 42.578125 2.273438 49.753906 6.507812 Z M 49.753906 6.507812 " fill-opacity="1" fill-rule="nonzero"/><path fill="#065b99" d="M 99.726562 15.722656 C 103.589844 15.722656 107.449219 15.722656 111.429688 15.722656 C 111.824219 17.308594 112.222656 18.890625 112.628906 20.523438 C 112.972656 21.84375 113.316406 23.164062 113.660156 24.484375 C 114.566406 27.957031 115.417969 31.4375 116.230469 34.933594 C 117.074219 32.042969 117.691406 29.113281 118.3125 26.171875 C 119.050781 22.667969 119.84375 19.191406 120.730469 15.722656 C 123.207031 15.722656 125.679688 15.722656 128.230469 15.722656 C 127.691406 18.898438 127.089844 22.039062 126.375 25.179688 C 126.109375 26.335938 125.851562 27.492188 125.589844 28.648438 C 125.511719 29.011719 125.511719 29.011719 125.429688 29.378906 C 124.679688 32.726562 123.984375 36.089844 123.289062 39.449219 C 123.238281 39.683594 123.191406 39.917969 123.140625 40.160156 C 123.050781 40.59375 122.960938 41.035156 122.867188 41.472656 C 122.695312 42.3125 122.503906 43.117188 122.230469 43.9375 C 118.46875 43.9375 114.707031 43.9375 110.828125 43.9375 C 110.214844 41.335938 110.214844 41.335938 109.589844 38.683594 C 108.777344 35.234375 107.957031 31.785156 107.097656 28.347656 C 107.027344 28.066406 106.957031 27.785156 106.882812 27.496094 C 106.523438 26.0625 106.132812 24.648438 105.726562 23.226562 C 104.34375 30.0625 102.957031 36.894531 101.527344 43.9375 C 99.050781 43.9375 96.578125 43.9375 94.027344 43.9375 C 94.363281 41.570312 94.363281 41.570312 94.558594 40.605469 C 94.621094 40.277344 94.621094 40.277344 94.6875 39.941406 C 94.734375 39.714844 94.78125 39.484375 94.828125 39.246094 C 94.875 39 94.925781 38.757812 94.976562 38.503906 C 95.132812 37.714844 95.292969 36.921875 95.453125 36.132812 C 95.503906 35.863281 95.558594 35.59375 95.617188 35.3125 C 96.339844 31.707031 97.082031 28.109375 97.878906 24.519531 C 98.523438 21.59375 99.121094 18.65625 99.726562 15.722656 Z M 99.726562 15.722656 " fill-opacity="1" fill-rule="nonzero"/><path fill="#075b9a" d="M 38.613281 11.089844 C 38.863281 11.09375 39.109375 11.09375 39.367188 11.097656 C 43.109375 11.199219 46.328125 12.605469 49.097656 15.144531 C 51.996094 18.21875 53.414062 21.691406 53.3125 25.914062 C 52.980469 29.195312 51.941406 32.023438 49.921875 34.632812 C 49.746094 34.773438 49.570312 34.914062 49.386719 35.058594 C 48.929688 35.539062 48.929688 35.539062 49.109375 36.328125 C 49.335938 37.40625 49.625 38.449219 49.941406 39.507812 C 50.003906 39.714844 50.066406 39.921875 50.128906 40.132812 C 50.261719 40.574219 50.390625 41.015625 50.523438 41.453125 C 50.867188 42.601562 51.203125 43.746094 51.542969 44.894531 C 51.609375 45.121094 51.679688 45.347656 51.746094 45.582031 C 52.320312 47.523438 52.875 49.46875 53.410156 51.421875 C 53.519531 51.824219 53.519531 51.824219 53.632812 52.230469 C 53.699219 52.472656 53.765625 52.71875 53.832031 52.96875 C 53.890625 53.175781 53.945312 53.382812 54.003906 53.59375 C 54.121094 54.140625 54.121094 54.140625 54.121094 55.042969 C 52.339844 55.042969 50.554688 55.042969 48.71875 55.042969 C 48.527344 54.386719 48.335938 53.730469 48.140625 53.054688 C 47.628906 51.308594 47.109375 49.566406 46.582031 47.828125 C 45.511719 44.28125 44.441406 40.734375 43.449219 37.164062 C 43.375 36.898438 43.300781 36.628906 43.222656 36.355469 C 42.535156 33.835938 42.535156 33.835938 42.71875 32.832031 C 43.191406 32.375 43.191406 32.375 43.824219 31.988281 C 45.636719 30.742188 46.746094 28.984375 47.21875 26.828125 C 47.453125 24.402344 47.191406 22.316406 45.734375 20.320312 C 44.160156 18.472656 42.855469 17.386719 40.371094 17.082031 C 37.554688 17.0625 35.371094 17.277344 33.179688 19.195312 C 31.664062 20.804688 30.820312 22.753906 30.457031 24.914062 C 30.089844 27.0625 29.164062 29.035156 28.316406 31.03125 C 28.714844 31.03125 29.109375 31.03125 29.519531 31.03125 C 29.519531 34.792969 29.519531 38.558594 29.519531 42.4375 C 34.074219 42.4375 38.628906 42.4375 43.320312 42.4375 C 44.519531 46.636719 44.519531 46.636719 44.519531 47.839844 C 37.785156 47.839844 31.054688 47.839844 24.117188 47.839844 C 24.117188 43.679688 24.117188 39.519531 24.117188 35.230469 C 23.125 35.230469 22.136719 35.230469 21.117188 35.230469 C 21.3125 34.09375 21.636719 33.085938 22.058594 32.011719 C 23.886719 27.335938 23.886719 27.335938 25.09375 22.476562 C 25.789062 18.65625 27.460938 15.953125 30.609375 13.640625 C 33.179688 11.921875 35.515625 11.050781 38.613281 11.089844 Z M 38.613281 11.089844 " fill-opacity="1" fill-rule="nonzero"/><path fill="#065b99" d="M 132.730469 15.722656 C 134.890625 15.6875 137.046875 15.660156 139.203125 15.644531 C 140.207031 15.636719 141.207031 15.625 142.210938 15.609375 C 152.09375 15.453125 152.09375 15.453125 154.851562 17.96875 C 156.488281 19.78125 156.5625 21.414062 156.5 23.78125 C 156.296875 26.664062 155.269531 29.167969 153.144531 31.152344 C 149.722656 33.835938 145.722656 34.167969 141.527344 34.089844 C 141.109375 34.082031 140.6875 34.078125 140.269531 34.074219 C 139.257812 34.066406 138.246094 34.050781 137.230469 34.03125 C 137.191406 34.339844 137.152344 34.644531 137.109375 34.960938 C 136.953125 36.007812 136.75 37.015625 136.507812 38.042969 C 136.4375 38.355469 136.363281 38.667969 136.289062 38.988281 C 136.199219 39.378906 136.105469 39.765625 136.011719 40.164062 C 135.578125 42.03125 135.578125 42.03125 135.132812 43.9375 C 132.558594 43.9375 129.984375 43.9375 127.332031 43.9375 C 127.332031 41.574219 127.332031 41.574219 127.566406 40.492188 C 127.621094 40.25 127.671875 40.003906 127.726562 39.753906 C 127.785156 39.492188 127.84375 39.234375 127.902344 38.964844 C 127.964844 38.6875 128.023438 38.410156 128.085938 38.125 C 128.214844 37.527344 128.34375 36.929688 128.476562 36.332031 C 128.824219 34.753906 129.164062 33.171875 129.503906 31.59375 C 129.574219 31.273438 129.640625 30.949219 129.714844 30.621094 C 130.414062 27.367188 131.070312 24.109375 131.71875 20.84375 C 131.796875 20.449219 131.796875 20.449219 131.875 20.050781 C 132.164062 18.605469 132.449219 17.164062 132.730469 15.722656 Z M 132.730469 15.722656 " fill-opacity="1" fill-rule="nonzero"/><path fill="#075c9a" d="M 169.636719 23.527344 C 170.933594 24.261719 171.914062 25.144531 172.9375 26.226562 C 173.234375 25.535156 173.53125 24.839844 173.835938 24.128906 C 176.214844 24.128906 178.589844 24.128906 181.039062 24.128906 C 180.699219 26.828125 180.699219 26.828125 180.464844 27.953125 C 180.414062 28.207031 180.363281 28.460938 180.308594 28.71875 C 180.222656 29.125 180.222656 29.125 180.136719 29.535156 C 180.078125 29.820312 180.015625 30.109375 179.957031 30.40625 C 179.761719 31.339844 179.566406 32.273438 179.371094 33.207031 C 179.234375 33.851562 179.101562 34.496094 178.964844 35.140625 C 177.804688 40.683594 176.585938 46.214844 175.335938 51.738281 C 172.863281 51.738281 170.386719 51.738281 167.835938 51.738281 C 168.726562 46.132812 168.726562 46.132812 169.472656 43.421875 C 169.671875 42.707031 169.671875 42.707031 169.636719 41.835938 C 169.480469 41.980469 169.324219 42.125 169.164062 42.273438 C 168.957031 42.464844 168.746094 42.652344 168.53125 42.847656 C 168.324219 43.035156 168.121094 43.222656 167.90625 43.417969 C 166.371094 44.605469 164.929688 44.644531 163.054688 44.648438 C 162.820312 44.65625 162.582031 44.664062 162.339844 44.671875 C 160.375 44.679688 159.300781 44.078125 157.878906 42.699219 C 156.007812 39.726562 156.042969 36.121094 156.773438 32.773438 C 157.769531 29.277344 159.683594 26.125 162.867188 24.277344 C 165.042969 23.273438 167.28125 23.140625 169.636719 23.527344 Z M 169.636719 23.527344 " fill-opacity="1" fill-rule="nonzero"/><path fill="#085c9a" d="M 82.867188 14.730469 C 83.347656 14.730469 83.347656 14.730469 83.835938 14.734375 C 86.039062 14.765625 88.054688 14.914062 90.125 15.722656 C 90.394531 15.820312 90.664062 15.921875 90.941406 16.023438 C 92.613281 16.734375 93.695312 17.589844 94.628906 19.160156 C 95.257812 20.78125 95.171875 22.496094 94.625 24.128906 C 91.753906 24.128906 88.882812 24.128906 85.925781 24.128906 C 85.777344 22.9375 85.777344 22.9375 85.625 21.726562 C 84.464844 20.535156 83.414062 20.179688 81.78125 20.132812 C 80.011719 20.160156 79.152344 20.714844 77.890625 21.945312 C 76.574219 23.339844 75.761719 24.726562 75.125 26.527344 C 75.035156 26.761719 74.945312 26.992188 74.851562 27.234375 C 74.242188 29.066406 74.132812 30.839844 74.109375 32.757812 C 74.105469 32.996094 74.101562 33.238281 74.097656 33.488281 C 74.113281 35.316406 74.355469 36.832031 75.671875 38.207031 C 77.011719 38.878906 78.472656 38.730469 79.925781 38.535156 C 81.636719 37.886719 82.652344 36.839844 83.523438 35.230469 C 83.671875 34.785156 83.671875 34.785156 83.824219 34.332031 C 86.597656 34.332031 89.371094 34.332031 92.226562 34.332031 C 92.226562 36.726562 91.285156 38.394531 89.695312 40.195312 C 86.210938 43.457031 82.445312 44.648438 77.757812 44.648438 C 77.136719 44.648438 76.511719 44.660156 75.890625 44.671875 C 72.800781 44.699219 70.113281 44.253906 67.78125 42.085938 C 66.898438 41.027344 66.339844 39.804688 65.824219 38.535156 C 65.710938 38.265625 65.601562 37.996094 65.488281 37.71875 C 64.160156 32.785156 65.46875 27.214844 67.847656 22.839844 C 68.761719 21.265625 69.910156 19.976562 71.222656 18.722656 C 71.394531 18.550781 71.566406 18.375 71.746094 18.195312 C 74.796875 15.300781 78.839844 14.707031 82.867188 14.730469 Z M 82.867188 14.730469 " fill-opacity="1" fill-rule="nonzero"/><path fill="#075b9a" d="M 41.632812 20.242188 C 42.820312 21.121094 43.855469 22.199219 44.519531 23.527344 C 44.679688 25.390625 44.75 27.0625 43.621094 28.628906 C 42.117188 30.132812 41.042969 30.773438 38.875 30.824219 C 37.296875 30.808594 36.410156 30.632812 35.21875 29.53125 C 33.785156 27.976562 33.269531 26.605469 33.324219 24.507812 C 33.539062 22.9375 34.375 21.875 35.554688 20.863281 C 37.351562 19.535156 39.527344 19.582031 41.632812 20.242188 Z M 41.632812 20.242188 " fill-opacity="1" fill-rule="nonzero"/><path fill="#f9fbfc" d="M 170.238281 28.027344 C 171.203125 28.789062 171.648438 29.261719 172.035156 30.429688 C 172.277344 33.390625 171.539062 36.5 169.636719 38.832031 C 168.925781 39.65625 168.367188 39.980469 167.253906 40.09375 C 165.582031 40.132812 165.582031 40.132812 164.855469 39.640625 C 163.734375 37.863281 164.019531 35.3125 164.453125 33.347656 C 165.34375 30.488281 166.6875 27.335938 170.238281 28.027344 Z M 170.238281 28.027344 " fill-opacity="1" fill-rule="nonzero"/><path fill="#f6f9fb" d="M 139.933594 21.425781 C 140.796875 21.402344 141.65625 21.382812 142.519531 21.371094 C 142.761719 21.363281 143.003906 21.355469 143.253906 21.347656 C 144.777344 21.328125 145.824219 21.460938 147.132812 22.324219 C 147.882812 23.449219 147.792969 23.953125 147.617188 25.242188 C 147.253906 26.601562 146.402344 27.347656 145.324219 28.222656 C 144.003906 28.824219 142.769531 28.726562 141.339844 28.683594 C 140.921875 28.679688 140.921875 28.679688 140.492188 28.671875 C 139.804688 28.664062 139.117188 28.648438 138.433594 28.628906 C 138.570312 27.878906 138.707031 27.128906 138.84375 26.378906 C 138.902344 26.066406 138.902344 26.066406 138.960938 25.746094 C 139.230469 24.289062 139.5625 22.859375 139.933594 21.425781 Z M 139.933594 21.425781 " fill-opacity="1" fill-rule="nonzero"/></svg>