<svg enable-background="new 0 0 512 512" viewBox="0 0 512 512" xmlns="http://www.w3.org/2000/svg"><path d="m496.348 238.34h-480.696c-7.953 0-14.4 6.447-14.4 14.4v243.86c0 7.953 6.447 14.4 14.4 14.4h480.696c7.953 0 14.4-6.447 14.4-14.4v-243.86c0-7.953-6.447-14.4-14.4-14.4z" fill="#ffb636"/><path d="m440.172 346.505h-17.611c-3.976 0-7.2-3.224-7.2-7.2v-46.828c0-3.976 3.224-7.2 7.2-7.2h17.611c3.976 0 7.2 3.224 7.2 7.2v46.828c0 3.977-3.224 7.2-7.2 7.2zm53.345-7.2v-46.828c0-3.976-3.224-7.2-7.2-7.2h-17.611c-3.976 0-7.2 3.224-7.2 7.2v46.828c0 3.976 3.224 7.2 7.2 7.2h17.611c3.977 0 7.2-3.223 7.2-7.2zm-440.145 0v-46.828c0-3.976-3.224-7.2-7.2-7.2h-17.611c-3.976 0-7.2 3.224-7.2 7.2v46.828c0 3.976 3.224 7.2 7.2 7.2h17.611c3.976 0 7.2-3.223 7.2-7.2zm46.145 0v-46.828c0-3.976-3.224-7.2-7.2-7.2h-17.61c-3.976 0-7.2 3.224-7.2 7.2v46.828c0 3.976 3.224 7.2 7.2 7.2h17.611c3.976 0 7.199-3.223 7.199-7.2zm-46.145 55.699v-15.642c0-3.976-3.224-7.2-7.2-7.2h-17.611c-3.976 0-7.2 3.224-7.2 7.2v15.642c0 3.976 3.224 7.2 7.2 7.2h17.611c3.976 0 7.2-3.224 7.2-7.2zm46.145 0v-15.642c0-3.976-3.224-7.2-7.2-7.2h-17.61c-3.976 0-7.2 3.224-7.2 7.2v15.642c0 3.976 3.224 7.2 7.2 7.2h17.611c3.976 0 7.199-3.224 7.199-7.2zm-46.145 54.035v-15.642c0-3.976-3.224-7.2-7.2-7.2h-17.611c-3.976 0-7.2 3.224-7.2 7.2v15.642c0 3.976 3.224 7.2 7.2 7.2h17.611c3.976 0 7.2-3.223 7.2-7.2zm46.145 0v-15.642c0-3.976-3.224-7.2-7.2-7.2h-17.61c-3.976 0-7.2 3.224-7.2 7.2v15.642c0 3.976 3.224 7.2 7.2 7.2h17.611c3.976 0 7.199-3.223 7.199-7.2zm347.855-54.035v-15.642c0-3.976-3.224-7.2-7.2-7.2h-17.611c-3.976 0-7.2 3.224-7.2 7.2v15.642c0 3.976 3.224 7.2 7.2 7.2h17.611c3.976 0 7.2-3.224 7.2-7.2zm46.145 0v-15.642c0-3.976-3.224-7.2-7.2-7.2h-17.611c-3.976 0-7.2 3.224-7.2 7.2v15.642c0 3.976 3.224 7.2 7.2 7.2h17.611c3.977 0 7.2-3.224 7.2-7.2zm-46.145 54.035v-15.642c0-3.976-3.224-7.2-7.2-7.2h-17.611c-3.976 0-7.2 3.224-7.2 7.2v15.642c0 3.976 3.224 7.2 7.2 7.2h17.611c3.976 0 7.2-3.223 7.2-7.2zm46.145 0v-15.642c0-3.976-3.224-7.2-7.2-7.2h-17.611c-3.976 0-7.2 3.224-7.2 7.2v15.642c0 3.976 3.224 7.2 7.2 7.2h17.611c3.977 0 7.2-3.223 7.2-7.2z" fill="#d38e3c"/><path d="m387.596 71.27h-256.309c-4.139 0-7.495 4.836-7.495 10.801v418.127c0 5.965 3.356 10.801 7.495 10.801h256.309c4.139 0 7.495-4.836 7.495-10.801v-418.126c0-5.966-3.355-10.802-7.495-10.802z" fill="#ffe1ab"/><path d="m174.33 315.84h-21.992c-3.976 0-7.2-3.224-7.2-7.2v-55.208c0-3.976 3.224-7.2 7.2-7.2h21.992c3.976 0 7.2 3.224 7.2 7.2v55.208c0 3.977-3.224 7.2-7.2 7.2zm59.66-7.2v-55.208c0-3.976-3.224-7.2-7.2-7.2h-21.992c-3.976 0-7.2 3.224-7.2 7.2v55.208c0 3.976 3.224 7.2 7.2 7.2h21.992c3.977 0 7.2-3.223 7.2-7.2zm86.022 0v-55.208c0-3.976-3.224-7.2-7.2-7.2h-21.991c-3.976 0-7.2 3.224-7.2 7.2v55.208c0 3.976 3.224 7.2 7.2 7.2h21.991c3.977 0 7.2-3.223 7.2-7.2zm52.461 0v-55.208c0-3.976-3.224-7.2-7.2-7.2h-21.992c-3.976 0-7.2 3.224-7.2 7.2v55.208c0 3.976 3.224 7.2 7.2 7.2h21.992c3.976 0 7.2-3.223 7.2-7.2zm-190.943 58.789v-15.642c0-3.976-3.224-7.2-7.2-7.2h-21.992c-3.976 0-7.2 3.224-7.2 7.2v15.642c0 3.976 3.224 7.2 7.2 7.2h21.992c3.976 0 7.2-3.224 7.2-7.2zm52.46 0v-15.642c0-3.976-3.224-7.2-7.2-7.2h-21.992c-3.976 0-7.2 3.224-7.2 7.2v15.642c0 3.976 3.224 7.2 7.2 7.2h21.992c3.977 0 7.2-3.224 7.2-7.2zm86.022 0v-15.642c0-3.976-3.224-7.2-7.2-7.2h-21.991c-3.976 0-7.2 3.224-7.2 7.2v15.642c0 3.976 3.224 7.2 7.2 7.2h21.991c3.977 0 7.2-3.224 7.2-7.2zm52.461 0v-15.642c0-3.976-3.224-7.2-7.2-7.2h-21.992c-3.976 0-7.2 3.224-7.2 7.2v15.642c0 3.976 3.224 7.2 7.2 7.2h21.992c3.976 0 7.2-3.224 7.2-7.2zm-190.943 57.957v-15.642c0-3.976-3.224-7.2-7.2-7.2h-21.992c-3.976 0-7.2 3.224-7.2 7.2v15.642c0 3.976 3.224 7.2 7.2 7.2h21.992c3.976 0 7.2-3.223 7.2-7.2zm190.943 0v-15.642c0-3.976-3.224-7.2-7.2-7.2h-21.992c-3.976 0-7.2 3.224-7.2 7.2v15.642c0 3.976 3.224 7.2 7.2 7.2h21.992c3.976 0 7.2-3.223 7.2-7.2zm-190.943 52.533v-15.642c0-3.976-3.224-7.2-7.2-7.2h-21.992c-3.976 0-7.2 3.224-7.2 7.2v15.642c0 3.976 3.224 7.2 7.2 7.2h21.992c3.976 0 7.2-3.223 7.2-7.2zm190.943 0v-15.642c0-3.976-3.224-7.2-7.2-7.2h-21.992c-3.976 0-7.2 3.224-7.2 7.2v15.642c0 3.976 3.224 7.2 7.2 7.2h21.992c3.976 0 7.2-3.223 7.2-7.2z" fill="#e2a042"/><path d="m207.259 404.509h104.366v106.491h-104.366z" fill="#2b3b47"/><circle cx="259.442" cy="165.563" fill="#ff473e" r="57.373"/><circle cx="259.442" cy="165.563" fill="#f4f3ef" r="44.214"/><path d="m319.74 398.701v11.617c0 3.976-3.224 7.2-7.2 7.2h-49.917v93.296h-6.363v-93.296h-49.916c-3.976 0-7.2-3.224-7.2-7.2v-11.617c0-3.976 3.224-7.2 7.2-7.2h106.196c3.976 0 7.2 3.223 7.2 7.2zm82.156-314.89v-12.769c0-3.976-3.224-7.2-7.2-7.2h-270.508c-3.976 0-7.2 3.224-7.2 7.2v12.769c0 3.976 3.224 7.2 7.2 7.2h270.508c3.976 0 7.2-3.224 7.2-7.2zm-107.611 85.979c0-2.664-2.159-4.823-4.823-4.823h-25.969v-27.975c0-2.664-2.159-4.823-4.823-4.823s-4.823 2.16-4.823 4.823v32.798c0 2.664 2.16 4.823 4.823 4.823h30.792c2.664 0 4.823-2.159 4.823-4.823z" fill="#597b91"/></svg>