<svg enable-background="new 0 0 500 500" viewBox="0 0 500 500" xmlns="http://www.w3.org/2000/svg"><path d="m471 182.3-33.3-107.5h-375.4l-33.3 107.5c3.6 8.7 9.6 15.5 16.8 18.9v224h29.6 118.1 260.6v-224c7.3-3.4 13.3-10.2 16.9-18.9z" fill="#fff" stroke="#fff" stroke-miterlimit="10" stroke-width="10"/><path d="m45.8 176.9h408.3v248.3h-408.3z" fill="#f2f2a9"/><path d="m75.5 234.2h118.1v191h-118.1z" fill="#736450"/><path d="m102.5 315.3h64v43.7h-64z" fill="#ffead9"/><path d="m133.1 269.9-26.4 45.5h52.8zm0 10.5 20.3 34.9h-40.5z" fill="#332c23"/><path d="m109.8 326.9h26.5v2.5h-26.5z" fill="#66665c"/><path d="m109.9 337.4h49.3v2.5h-49.3z" fill="#66665c"/><path d="m109.8 347.8h46.5v2.5h-46.5z" fill="#66665c"/><g fill="#cc543d"><path d="m415.7 182.3c5.4 12.8 15.7 21.4 27.6 21.4s22.3-8.7 27.6-21.4z"/><path d="m360.5 182.3c5.4 12.8 15.7 21.4 27.6 21.4s22.3-8.7 27.6-21.4z"/><path d="m305.2 182.3c5.4 12.8 15.7 21.4 27.6 21.4s22.3-8.7 27.6-21.4z"/><path d="m250 182.3c5.4 12.8 15.7 21.4 27.6 21.4s22.3-8.7 27.6-21.4z"/><path d="m194.8 182.3c5.4 12.8 15.7 21.4 27.6 21.4s22.3-8.7 27.6-21.4z"/><path d="m139.5 182.3c5.4 12.8 15.7 21.4 27.6 21.4s22.3-8.7 27.6-21.4z"/><path d="m84.3 182.3c5.4 12.8 15.7 21.4 27.6 21.4s22.3-8.7 27.6-21.4z"/><path d="m29 182.3c5.4 12.8 15.7 21.4 27.6 21.4s22.3-8.7 27.6-21.4z"/></g><circle cx="178.7" cy="337.2" fill="#bf9b52" r="7.8"/><path d="m237.7 226.2v143.9h179.9v-143.9zm155.7 63.7h-57.4v-39.2h57.4zm-74-39.2v39.2h-57.4v-39.2zm-57.4 55.8h57.4v43.3h-57.4zm74 43.3v-43.3h57.4v43.3z" fill="#997e5c"/><path d="m336 306.5h57.4v43.3h-57.4z" fill="#ccfffc"/><path d="m262 250.7h57.4v39.2h-57.4z" fill="#ccfffc"/><path d="m262 306.5h57.4v43.3h-57.4z" fill="#ccfffc"/><path d="m336 250.7h57.4v39.2h-57.4z" fill="#ccfffc"/><path d="m437.7 74.8h-375.4l-33.3 107.5h33.5 375 .2 33.3z" fill="#e65f45"/><path d="m43.4 135.7h413.2l-10.4-33.4h-392.4z" fill="#fffae6"/></svg>